PathFileType	4	(X/Y/Z)	C:/Users/beibeiliu/ov580/test_trc\sequence.37_training_dense_right.trc
DataRate	CameraRate	NumFrames	NumMarkers	Units	OrigDataRate	OrigDataStartFrame	OrigNumFrames
120	120	18	19	mm	120	34	269
Frame#	Time	ThumbCMC			ThumbMCP			ThumbIP			ThumbTip			IndexMCP			IndexPIP			IndexTip			MiddleMCP			MiddlePIP			MiddleTip			RingMCP			RingPIP			RingTip			PinkyMCP			PinkyPIP			PinkyTip			BackHand1			BackHand2			BackHand3	
		X0	Y0	Z0	X1	Y1	Z1	X2	Y2	Z2	X3	Y3	Z3	X4	Y4	Z4	X5	Y5	Z5	X6	Y6	Z6	X7	Y7	Z7	X8	Y8	Z8	X9	Y9	Z9	X10	Y10	Z10	X11	Y11	Z11	X12	Y12	Z12	X13	Y13	Z13	X14	Y14	Z14	X15	Y15	Z15	X16	Y16	Z16	X17	Y17	Z17	X18	Y18	Z18	
33	0.275	273.799	-49.6091	35.1778	272.089	-71.4523	15.4225	276.95	-85.3636	-3.02551	284.871	-98.9754	-21.5809	318.078	-37.322	-17.2056	331.241	-43.0416	-33.947	345.444	-53.1955	-48.6459	340.971	-39.7015	-3.18893	355.371	-44.8635	-26.6447	369.197	-55.8949	-43.9741	354.18	-44.505	7.5251	366.774	-50.3536	-8.47958	378.205	-60.5538	-21.4103	358.655	-51.0795	28.4497	371.567	-57.302	17.8945	387.232	-63.9639	2.79367	325.223	-29.6522	44.5213	312.05	-27.0593	62.5629	295.125	-26.3751	38.7703	
34	0.283333	281.431	-52.3828	28.9029	279.361	-74.8814	7.28477	285.763	-86.5194	-5.58108	290.116	-101.944	-25.883	326.747	-41.1839	-16.9252	337.974	-46.6052	-41.8642	349.283	-55.6447	-54.3819	345.088	-41.4591	-13.8663	360.245	-48.1582	-30.1271	376.865	-63.2199	-49.0399	356.525	-47.7214	3.69665	370.711	-55.1279	-10.6248	382.232	-66.7961	-30.7687	363.236	-55.798	24.7017	377.114	-63.7292	14.2212	388.639	-69.1723	-0.411074	330.529	-35.8794	42.7479	314.92	-31.2603	61.4206	303.186	-29.2441	32.6204	
35	0.291667	284.864	-53.3501	27.5316	286.261	-76.7378	1.97182	288.542	-89.6989	-13.3558	298.379	-102.221	-27.1976	330.299	-41.376	-25.6017	344.144	-48.9509	-40.0529	352.514	-58.2355	-59.6041	353.309	-44.1507	-16.6884	367.84	-52.3718	-34.4665	383.146	-67.3669	-49.5532	363.263	-51.9176	3.64644	375.938	-60.5315	-18.603	388.758	-74.8403	-32.5006	369.716	-60.25	19.8479	378.596	-67.9812	11.5462	392.53	-78.675	-2.27624	333.615	-35.8855	36.4064	319.24	-33.0309	59.7344	310.443	-30.1404	31.3974	
36	0.3	291.075	-54.6725	20.1805	290.159	-77.216	2.22027	295.735	-91.6595	-20.434	301.589	-105.059	-32.3506	338.572	-44.7016	-24.7374	347.976	-50.7876	-45.7051	359.894	-63.3873	-59.8888	356.326	-48.0148	-19.9759	372.424	-57.5917	-35.2687	385.492	-74.5142	-55.8873	366.54	-56.7959	0.270092	381.293	-69.0169	-20.0435	388.712	-84.0465	-34.8053	371.911	-66.9324	22.7908	387.63	-79.6725	8.29717	393.782	-85.9998	-2.84307	338.639	-42.0667	33.9846	325.761	-35.6135	51.5539	313.413	-32.5773	30.0489	
37	0.308333	293.884	-56.2825	20.8551	291.846	-78.4593	-2.26775	298.819	-93.421	-24.3961	306.482	-107.26	-36.1971	342.273	-48.412	-25.8942	356.03	-54.2231	-45.0356	362.813	-66.313	-66.5126	363.961	-52.4315	-18.9423	380.702	-63.8335	-35.397	392.167	-83.1442	-53.0836	371.844	-61.3452	-0.611539	385.371	-76.0364	-21.5651	389.099	-90.3846	-35.1633	377.328	-74.6338	20.7314	388.947	-88.2718	7.12957	394.262	-100.434	-7.47289	344.177	-44.3265	33.9181	333.296	-39.1469	51.6997	321.506	-35.6461	23.0663	
38	0.316667	296.641	-55.7443	17.2638	296.259	-77.604	-5.63414	302.816	-91.9186	-26.8096	308.293	-106.189	-37.6014	349.948	-50.3215	-30.4124	361.008	-56.7409	-50.2564	370.219	-71.8726	-67.2594	369.966	-56.4689	-16.9074	383.445	-66.0967	-37.6401	394.187	-87.1926	-56.4387	376.534	-66.0676	-5.9027	388.807	-78.4558	-19.3274	390.627	-96.1082	-36.5413	378.135	-77.605	19.1762	388.773	-91.7713	9.14899	391.223	-106.088	-7.08517	347.253	-49.0665	31.6257	334.234	-41.6241	47.7824	326.361	-36.062	22.4049	
39	0.325	297.133	-56.571	11.993	302.855	-78.7823	-11.567	309.668	-91.712	-27.8084	312.975	-106.003	-39.8753	348.912	-51.0575	-28.6968	363.723	-56.3577	-50.0138	373.419	-72.2432	-68.5119	372.492	-57.0356	-22.5496	389.443	-71.0166	-40.0196	397.679	-93.2774	-55.0596	382.009	-70.1097	-5.53474	390.743	-83.0821	-23.2931	391.461	-102.837	-38.2337	380.201	-79.5945	14.0301	390.714	-97.1537	3.53599	388.716	-114.479	-10.8494	353.064	-51.8467	31.1644	336.974	-45.4488	50.7381	328.541	-37.2708	19.6304	
40	0.333333	302.623	-57.658	8.56717	304.285	-79.5979	-10.9962	308.996	-92.7604	-29.5243	317.641	-106.026	-43.3977	353.855	-51.618	-29.9729	370.636	-60.274	-48.1419	380.102	-78.3202	-67.9769	376.719	-60.5012	-18.8235	389.559	-71.2042	-38.7908	398.114	-95.7951	-55.8753	381.9	-73.1961	-2.34415	392.065	-87.0199	-23.465	393.526	-106.612	-35.8921	383.839	-85.1316	16.2207	390.994	-102.375	2.1913	387.053	-118.917	-10.9358	354.021	-53.7246	28.2473	339.895	-46.0502	48.6601	332.345	-42.1474	21.3963	
41	0.341667	305.983	-59.2863	9.33893	303.684	-80.1566	-11.8044	313.424	-93.3162	-31.0801	319.298	-108.432	-47.5672	356.57	-52.5733	-31.8328	373.295	-62.1769	-50.4511	379.552	-77.3144	-67.8005	379.211	-62.2925	-23.9352	393.681	-77.0824	-39.9747	397.821	-102.798	-55.6298	385.54	-76.6218	-6.87023	391.792	-88.9656	-24.7479	389.331	-114.402	-38.2153	383.518	-87.6085	15.7037	387.805	-105.55	-4.38028	381.793	-121.742	-12.5253	356.442	-55.2578	30.3798	342.598	-51.5935	45.6656	331.955	-42.3105	19.2018	
42	0.35	309.075	-60.7547	7.92602	306.578	-81.7727	-12.1256	312.679	-95.2679	-34.0391	318.662	-109.708	-50.6736	362.979	-57.1758	-32.5062	374.953	-65.39	-49.1008	380.953	-82.1888	-66.8861	382.262	-66.6899	-23.168	393.845	-79.4724	-39.6386	394.712	-105.598	-56.8626	382.546	-78.4893	-9.21116	391.152	-96.1837	-27.3466	383.74	-114.222	-39.1621	384.487	-91.729	13.3093	388.19	-108.616	-2.87024	373.4	-125.243	-15.6873	357.454	-58.0321	29.0857	344.984	-54.0057	45.5535	336.164	-45.0917	16.2128	
43	0.358333	306.082	-61.6868	5.47276	307.635	-83.4487	-13.259	311.552	-96.2769	-32.3292	317.13	-109.588	-47.073	360.388	-59.5596	-29.3996	375.044	-69.526	-55.1454	379.161	-85.7243	-68.8065	376.909	-69.3542	-21.7337	390.031	-83.6943	-44.9001	388.925	-108.692	-57.458	382.071	-81.4138	-8.19946	386.625	-102.725	-29.4362	377.488	-123.006	-34.9727	384.025	-96.0244	10.0862	380.995	-112.049	-7.09159	362.781	-126.149	-13.7978	356.256	-60.6542	28.0022	344.012	-54.8461	44.6639	335.857	-48.0314	20.7048	
44	0.366667	309.411	-64.6216	5.96275	305.597	-83.5162	-13.2728	309.674	-97.0095	-32.1682	315.407	-111.679	-48.3069	362.08	-61.1442	-33.9162	372.412	-71.2627	-52.47	378.707	-93.948	-66.3678	377.022	-72.9879	-24.5168	389.279	-91.5293	-42.7355	381.951	-116.661	-56.0784	381.655	-88.4262	-11.083	381.072	-108.506	-29.8833	366.24	-126.856	-32.6427	376.518	-98.7768	6.94298	372.007	-119.029	-6.95534	350.353	-123.401	-12.7339	358.959	-63.6504	25.9644	339.726	-59.2223	47.6307	333.217	-48.8311	19.71	
45	0.375	307.314	-64.7862	6.14698	304.109	-84.3399	-17.3557	306.651	-96.8116	-36.8785	312.702	-113.087	-52.4601	359.779	-64.7643	-28.4776	370.411	-75.6314	-52.6118	372.095	-99.1255	-68.6381	374.474	-76.2883	-24.1233	383.884	-93.1986	-43.7994	373.766	-122.511	-53.9732	374.956	-90.8817	-8.82952	374.165	-113.649	-28.8046	354.917	-129.596	-31.9172	374.802	-107.402	7.27443	365.804	-120.342	-6.94038	339.875	-128.621	-7.7018	353.437	-67.3604	26.5336	339.984	-61.9312	50.4406	333.3	-49.8441	16.5251	
46	0.383333	303.608	-64.0089	4.07431	301.957	-83.5031	-16.4474	304.689	-98.185	-38.8905	308.926	-111.353	-48.7797	357.009	-67.3616	-31.7183	369.843	-82.5253	-50.487	366.584	-107.427	-66.4002	372.256	-82.7118	-22.3819	378.608	-102.048	-44.5214	363.736	-127.274	-51.9719	371.654	-96.2488	-8.97757	366.626	-118.675	-28.3428	343.308	-130.779	-28.6305	370.016	-115.039	7.49699	352.732	-129.479	-5.68725	331.368	-123.674	-7.35024	356.111	-75.8295	27.488	341.004	-66.241	47.3364	334.886	-54.5235	20.3151	
47	0.391667	304.28	-64.2152	8.9458	297.986	-82.5782	-18.7667	299.898	-95.8581	-37.4235	308.577	-112.963	-49.2244	355.485	-70.7438	-30.9362	368.146	-89.9506	-50.2779	358.611	-107.907	-66.8621	372.249	-90.5192	-21.9891	372.451	-111.182	-45.2744	350.327	-130.9	-52.6588	368.841	-103.08	-7.87517	360.099	-126.586	-26.7394	336.294	-131.713	-26.9676	362.874	-118.984	7.00346	347.766	-128.728	-8.27677	324.447	-123.821	-8.38419	353.312	-78.3265	31.2299	335.551	-67.7564	49.2537	332.065	-55.9807	23.1852	
48	0.4	302.442	-63.505	7.15324	294.939	-80.969	-17.5366	298.997	-96.6208	-37.9611	301.466	-111.18	-48.8682	359.312	-77.6903	-32.2732	362.395	-89.6194	-51.7048	352.325	-112.651	-62.4924	369.157	-95.2685	-22.1268	366.416	-112.916	-44.7674	340.468	-130.909	-49.7173	365.41	-106.668	-10.4382	356.776	-126.122	-26.651	325.462	-132.543	-23.4262	357.461	-122.245	8.58129	340.989	-135.82	-5.67771	319.406	-123.687	-7.46684	349.217	-82.6811	32.7862	336.991	-73.1796	49.8221	332.882	-58.3107	23.5413	
49	0.408333	304.057	-64.5138	8.74017	297.134	-81.7253	-19.5306	294.92	-93.5621	-35.5492	300.577	-112.12	-49.1773	354.451	-80.0194	-28.2948	356.13	-99.1401	-51.83	338.831	-117.422	-61.2712	362.172	-94.1031	-21.1075	358.182	-120.554	-42.7626	331.764	-130.205	-45.0216	361.515	-114.136	-8.77806	348.378	-126.787	-27.7215	318.088	-130.054	-22.5352	351.948	-122.623	7.49119	333.84	-135.859	-5.3397	313.473	-123.715	-6.90085	348.491	-86.0651	31.894	332.532	-75.4489	48.6354	333.011	-59.9758	26.1353	
50	0.416667	300.391	-62.6471	7.11267	290.809	-78.8492	-17.5523	292.589	-92.2005	-33.596	297.826	-111.482	-49.5197	352.013	-79.8247	-30.0685	350.644	-98.3304	-51.4228	331.625	-115.556	-58.727	359.759	-98.8206	-24.2383	351.645	-116.804	-42.5824	322.574	-131.348	-38.1115	356.153	-116.378	-7.35789	340.603	-129.532	-24.3986	310.834	-128.557	-16.4403	345.972	-125.611	7.19513	328.021	-131.927	-7.8329	306.524	-122.816	0.546177	346.097	-85.914	29.5514	331.973	-75.5462	50.1899	329.803	-62.377	28.6671	
